<svg width="1280" height="720" xmlns="http://www.w3.org/2000/svg" xmlns:xlink="http://www.w3.org/1999/xlink" overflow="hidden"><defs><filter id="fx0" x="-10%" y="-10%" width="120%" height="120%" filterUnits="userSpaceOnUse" primitiveUnits="userSpaceOnUse"><feComponentTransfer color-interpolation-filters="sRGB"><feFuncR type="discrete" tableValues="0 0"/><feFuncG type="discrete" tableValues="0 0"/><feFuncB type="discrete" tableValues="0 0"/><feFuncA type="linear" slope="0.4" intercept="0"/></feComponentTransfer><feGaussianBlur stdDeviation="1.77778 1.77778"/></filter><filter id="fx1" x="-10%" y="-10%" width="120%" height="120%" filterUnits="userSpaceOnUse" primitiveUnits="userSpaceOnUse"><feComponentTransfer color-interpolation-filters="sRGB"><feFuncR type="discrete" tableValues="0 0"/><feFuncG type="discrete" tableValues="0 0"/><feFuncB type="discrete" tableValues="0 0"/><feFuncA type="linear" slope="0.4" intercept="0"/></feComponentTransfer><feGaussianBlur stdDeviation="1.77778 1.77778"/></filter><filter id="fx2" x="-10%" y="-10%" width="120%" height="120%" filterUnits="userSpaceOnUse" primitiveUnits="userSpaceOnUse"><feComponentTransfer color-interpolation-filters="sRGB"><feFuncR type="discrete" tableValues="0 0"/><feFuncG type="discrete" tableValues="0 0"/><feFuncB type="discrete" tableValues="0 0"/><feFuncA type="linear" slope="0.4" intercept="0"/></feComponentTransfer><feGaussianBlur stdDeviation="1.77778 1.77778"/></filter><filter id="fx3" x="-10%" y="-10%" width="120%" height="120%" filterUnits="userSpaceOnUse" primitiveUnits="userSpaceOnUse"><feComponentTransfer color-interpolation-filters="sRGB"><feFuncR type="discrete" tableValues="0 0"/><feFuncG type="discrete" tableValues="0 0"/><feFuncB type="discrete" tableValues="0 0"/><feFuncA type="linear" slope="0.4" intercept="0"/></feComponentTransfer><feGaussianBlur stdDeviation="1.77778 1.77778"/></filter><filter id="fx4" x="-10%" y="-10%" width="120%" height="120%" filterUnits="userSpaceOnUse" primitiveUnits="userSpaceOnUse"><feComponentTransfer color-interpolation-filters="sRGB"><feFuncR type="discrete" tableValues="0 0"/><feFuncG type="discrete" tableValues="0 0"/><feFuncB type="discrete" tableValues="0 0"/><feFuncA type="linear" slope="0.4" intercept="0"/></feComponentTransfer><feGaussianBlur stdDeviation="1.77778 1.77778"/></filter><filter id="fx5" x="-10%" y="-10%" width="120%" height="120%" filterUnits="userSpaceOnUse" primitiveUnits="userSpaceOnUse"><feComponentTransfer color-interpolation-filters="sRGB"><feFuncR type="discrete" tableValues="0 0"/><feFuncG type="discrete" tableValues="0 0"/><feFuncB type="discrete" tableValues="0 0"/><feFuncA type="linear" slope="0.4" intercept="0"/></feComponentTransfer><feGaussianBlur stdDeviation="1.77778 1.77778"/></filter><filter id="fx6" x="-10%" y="-10%" width="120%" height="120%" filterUnits="userSpaceOnUse" primitiveUnits="userSpaceOnUse"><feComponentTransfer color-interpolation-filters="sRGB"><feFuncR type="discrete" tableValues="0 0"/><feFuncG type="discrete" tableValues="0 0"/><feFuncB type="discrete" tableValues="0 0"/><feFuncA type="linear" slope="0.4" intercept="0"/></feComponentTransfer><feGaussianBlur stdDeviation="1.77778 1.77778"/></filter><linearGradient x1="155.5" y1="713" x2="155.5" y2="5" gradientUnits="userSpaceOnUse" spreadMethod="reflect" id="fill7"><stop offset="0" stop-color="#0A6A8F"/><stop offset="0.48" stop-color="#10A4DD"/><stop offset="1" stop-color="#61CBF4"/></linearGradient><clipPath id="clip8"><path d="M389.395 293.5C365.705 293.5 346.5 312.705 346.5 336.395L346.5 617.605C346.5 641.295 365.705 660.5 389.395 660.5L1196.6 660.5C1220.3 660.5 1239.5 641.295 1239.5 617.605L1239.5 336.395C1239.5 312.705 1220.3 293.5 1196.6 293.5ZM1.90735e-05 1.07288e-05 1280 1.07288e-05 1280 720 1.90735e-05 720Z" fill-rule="evenodd" clip-rule="evenodd"/></clipPath><clipPath id="clip9"><path d="M367.622 113.5C355.957 113.5 346.5 122.957 346.5 134.622L346.5 239.378C346.5 251.043 355.957 260.5 367.622 260.5L594.378 260.5C606.043 260.5 615.5 251.043 615.5 239.378L615.5 134.622C615.5 122.957 606.043 113.5 594.378 113.5ZM1.90735e-05 1.07288e-05 1280 1.07288e-05 1280 720 1.90735e-05 720Z" fill-rule="evenodd" clip-rule="evenodd"/></clipPath><clipPath id="clip10"><path d="M654.197 111.5C642.214 111.5 632.5 121.214 632.5 133.197L632.5 240.803C632.5 252.786 642.214 262.5 654.197 262.5L801.803 262.5C813.786 262.5 823.5 252.786 823.5 240.803L823.5 133.197C823.5 121.214 813.786 111.5 801.803 111.5ZM1.90735e-05 1.07288e-05 1280 1.07288e-05 1280 720 1.90735e-05 720Z" fill-rule="evenodd" clip-rule="evenodd"/></clipPath><clipPath id="clip11"><path d="M862.197 111.5C850.214 111.5 840.5 121.214 840.5 133.197L840.5 240.803C840.5 252.786 850.214 262.5 862.197 262.5L1009.8 262.5C1021.79 262.5 1031.5 252.786 1031.5 240.803L1031.5 133.197C1031.5 121.214 1021.79 111.5 1009.8 111.5ZM1.90735e-05 1.07288e-05 1280 1.07288e-05 1280 720 1.90735e-05 720Z" fill-rule="evenodd" clip-rule="evenodd"/></clipPath><clipPath id="clip12"><path d="M1070.2 111.5C1058.21 111.5 1048.5 121.214 1048.5 133.197L1048.5 240.803C1048.5 252.786 1058.21 262.5 1070.2 262.5L1217.8 262.5C1229.79 262.5 1239.5 252.786 1239.5 240.803L1239.5 133.197C1239.5 121.214 1229.79 111.5 1217.8 111.5ZM1.90735e-05 1.07288e-05 1280 1.07288e-05 1280 720 1.90735e-05 720Z" fill-rule="evenodd" clip-rule="evenodd"/></clipPath></defs><g><rect x="0" y="0" width="1280" height="720" fill="#CAEEFB" fill-opacity="0.301961"/><g filter="url(#fx0)" transform="translate(2 2)"><g><path d="M7 55.8345C7 28.8639 28.864 7 55.8346 7L251.165 7C278.136 7 300 28.8639 300 55.8345L300 666.165C300 693.136 278.136 715 251.165 715L55.8346 715C28.864 715 7 693.136 7 666.165Z" fill="#FF0000" fill-rule="evenodd"/></g></g><path d="M9 53.8345C9 26.8639 30.864 5 57.8346 5L253.165 5C280.136 5 302 26.8639 302 53.8345L302 664.165C302 691.136 280.136 713 253.165 713L57.8346 713C30.864 713 9 691.136 9 664.165Z" fill="url(#fill7)" fill-rule="evenodd"/><g filter="url(#fx1)" transform="translate(11 51)"><g><path d="M7 144.5C7 68.5608 68.5608 7 144.5 7 220.439 7 282 68.5608 282 144.5 282 220.439 220.439 282 144.5 282 68.5608 282 7 220.439 7 144.5Z" fill="#FFFFFF" fill-rule="evenodd"/></g></g><path d="M18 191.5C18 115.561 79.5608 54 155.5 54 231.439 54 293 115.561 293 191.5 293 267.439 231.439 329 155.5 329 79.5608 329 18 267.439 18 191.5Z" fill="#FFFFFF" fill-rule="evenodd"/><path d="M33 191.5C33 123.845 87.8451 69 155.5 69 223.155 69 278 123.845 278 191.5 278 259.155 223.155 314 155.5 314 87.8451 314 33 259.155 33 191.5Z" fill="#61CBF4" fill-rule="evenodd"/><rect x="13" y="458" width="285" height="83" fill="#FFFFFF"/><g clip-path="url(#clip8)"><g filter="url(#fx2)" transform="translate(339 290)"><g><path d="M7.50006 50.3952C7.50006 26.7049 26.7048 7.50006 50.3951 7.50006L857.605 7.50006C881.295 7.50006 900.5 26.7049 900.5 50.3952L900.5 331.605C900.5 355.295 881.295 374.5 857.605 374.5L50.3951 374.5C26.7048 374.5 7.50006 355.295 7.50006 331.605Z" stroke="#61CBF4" stroke-miterlimit="8" stroke-opacity="0.631373" fill="#FFFFFF" fill-rule="evenodd"/></g></g></g><path d="M346.5 336.395C346.5 312.705 365.705 293.5 389.395 293.5L1196.6 293.5C1220.3 293.5 1239.5 312.705 1239.5 336.395L1239.5 617.605C1239.5 641.295 1220.3 660.5 1196.6 660.5L389.395 660.5C365.705 660.5 346.5 641.295 346.5 617.605Z" stroke="#61CBF4" stroke-width="0.666667" stroke-miterlimit="8" stroke-opacity="0.631373" fill="#FFFFFF" fill-rule="evenodd"/><g clip-path="url(#clip9)"><g filter="url(#fx3)" transform="translate(339 110)"><g><path d="M7.50006 28.6223C7.50006 16.9568 16.9568 7.50005 28.6223 7.50005L255.378 7.50005C267.043 7.50005 276.5 16.9568 276.5 28.6223L276.5 133.378C276.5 145.043 267.043 154.5 255.378 154.5L28.6223 154.5C16.9568 154.5 7.50006 145.043 7.50006 133.378Z" stroke="#61CBF4" stroke-miterlimit="8" stroke-opacity="0.631373" fill="#FFFFFF" fill-rule="evenodd"/></g></g></g><path d="M346.5 134.622C346.5 122.957 355.957 113.5 367.622 113.5L594.378 113.5C606.043 113.5 615.5 122.957 615.5 134.622L615.5 239.378C615.5 251.043 606.043 260.5 594.378 260.5L367.622 260.5C355.957 260.5 346.5 251.043 346.5 239.378Z" stroke="#61CBF4" stroke-width="0.666667" stroke-miterlimit="8" stroke-opacity="0.631373" fill="#FFFFFF" fill-rule="evenodd"/><g clip-path="url(#clip10)"><g filter="url(#fx4)" transform="translate(625 108)"><g><path d="M7.50006 29.1973C7.50006 17.2142 17.2142 7.50005 29.1973 7.50005L176.803 7.50005C188.786 7.50005 198.5 17.2142 198.5 29.1973L198.5 136.803C198.5 148.786 188.786 158.5 176.803 158.5L29.1973 158.5C17.2142 158.5 7.50006 148.786 7.50006 136.803Z" stroke="#61CBF4" stroke-miterlimit="8" stroke-opacity="0.631373" fill="#FFFFFF" fill-rule="evenodd"/></g></g></g><path d="M632.5 133.197C632.5 121.214 642.214 111.5 654.197 111.5L801.803 111.5C813.786 111.5 823.5 121.214 823.5 133.197L823.5 240.803C823.5 252.786 813.786 262.5 801.803 262.5L654.197 262.5C642.214 262.5 632.5 252.786 632.5 240.803Z" stroke="#61CBF4" stroke-width="0.666667" stroke-miterlimit="8" stroke-opacity="0.631373" fill="#FFFFFF" fill-rule="evenodd"/><g clip-path="url(#clip11)"><g filter="url(#fx5)" transform="translate(833 108)"><g><path d="M7.50006 29.1973C7.50006 17.2142 17.2142 7.50005 29.1973 7.50005L176.803 7.50005C188.786 7.50005 198.5 17.2142 198.5 29.1973L198.5 136.803C198.5 148.786 188.786 158.5 176.803 158.5L29.1973 158.5C17.2142 158.5 7.50006 148.786 7.50006 136.803Z" stroke="#61CBF4" stroke-miterlimit="8" stroke-opacity="0.631373" fill="#FFFFFF" fill-rule="evenodd"/></g></g></g><path d="M840.5 133.197C840.5 121.214 850.214 111.5 862.197 111.5L1009.8 111.5C1021.79 111.5 1031.5 121.214 1031.5 133.197L1031.5 240.803C1031.5 252.786 1021.79 262.5 1009.8 262.5L862.197 262.5C850.214 262.5 840.5 252.786 840.5 240.803Z" stroke="#61CBF4" stroke-width="0.666667" stroke-miterlimit="8" stroke-opacity="0.631373" fill="#FFFFFF" fill-rule="evenodd"/><g clip-path="url(#clip12)"><g filter="url(#fx6)" transform="translate(1041 108)"><g><path d="M7.5 29.1973C7.5 17.2142 17.2142 7.50005 29.1972 7.50005L176.803 7.50005C188.786 7.50005 198.5 17.2142 198.5 29.1973L198.5 136.803C198.5 148.786 188.786 158.5 176.803 158.5L29.1972 158.5C17.2142 158.5 7.5 148.786 7.5 136.803Z" stroke="#61CBF4" stroke-miterlimit="8" stroke-opacity="0.631373" fill="#FFFFFF" fill-rule="evenodd"/></g></g></g><path d="M1048.5 133.197C1048.5 121.214 1058.21 111.5 1070.2 111.5L1217.8 111.5C1229.79 111.5 1239.5 121.214 1239.5 133.197L1239.5 240.803C1239.5 252.786 1229.79 262.5 1217.8 262.5L1070.2 262.5C1058.21 262.5 1048.5 252.786 1048.5 240.803Z" stroke="#61CBF4" stroke-width="0.666667" stroke-miterlimit="8" stroke-opacity="0.631373" fill="#FFFFFF" fill-rule="evenodd"/></g></svg>